HIERARCHY
ROOT RootJoint
{
    OFFSET   0.000000   0.000000   0.000000
    CHANNELS 6 Xposition Yposition Zposition Xrotation Yrotation Zrotation
    JOINT pelvis_lowerback
    {
        OFFSET   0.000000   0.093605   0.000000
        CHANNELS 3 Xrotation Yrotation Zrotation
        JOINT lowerback_torso
        {
            OFFSET   0.000000   0.100000   0.000000
            CHANNELS 3 Xrotation Yrotation Zrotation
            JOINT torso_head
            {
                OFFSET   0.000000   0.282350   0.000000
                CHANNELS 3 Xrotation Yrotation Zrotation
                End Site
                {
                    OFFSET   0.000000   0.192650   0.000000
                }
            }
            JOINT rTorso_Clavicle
            {
                OFFSET  -0.001000   0.157500   0.000000
                CHANNELS 3 Xrotation Yrotation Zrotation
                JOINT rShoulder
                {
                    OFFSET  -0.117647   0.000000   0.000000
                    CHANNELS 3 Xrotation Yrotation Zrotation
                    JOINT rElbow
                    {
                        OFFSET  -0.245000   0.000000   0.000000
                        CHANNELS 3 Xrotation Yrotation Zrotation
                        JOINT rWrist
                        {
                            OFFSET  -0.240000   0.000000   0.000000
                            CHANNELS 3 Xrotation Yrotation Zrotation
                            End Site
                            {
                                OFFSET  -0.116353  -0.002500   0.000000
                            }
                        }
                    }
                }
            }
            JOINT lTorso_Clavicle
            {
                OFFSET   0.001000   0.157500   0.000000
                CHANNELS 3 Xrotation Yrotation Zrotation
                JOINT lShoulder
                {
                    OFFSET   0.117647   0.000000   0.000000
                    CHANNELS 3 Xrotation Yrotation Zrotation
                    JOINT lElbow
                    {
                        OFFSET   0.245000   0.000000   0.000000
                        CHANNELS 3 Xrotation Yrotation Zrotation
                        JOINT lWrist
                        {
                            OFFSET   0.240000   0.000000   0.000000
                            CHANNELS 3 Xrotation Yrotation Zrotation
                            End Site
                            {
                                OFFSET   0.116353  -0.002500   0.000000
                            }
                        }
                    }
                }
            }
        }
    }
    JOINT rHip
    {
        OFFSET  -0.100000  -0.051395   0.000000
        CHANNELS 3 Xrotation Yrotation Zrotation
        JOINT rKnee
        {
            OFFSET   0.000000  -0.410000   0.000000
            CHANNELS 3 Xrotation Yrotation Zrotation
            JOINT rAnkle
            {
                OFFSET   0.000000  -0.390000   0.000000
                CHANNELS 3 Xrotation Yrotation Zrotation
                JOINT rToeJoint
                {
                    OFFSET   0.000000  -0.050000   0.130000
                    CHANNELS 3 Xrotation Yrotation Zrotation
                    End Site
                    {
                        OFFSET  -0.010000   0.002000   0.060000
                    }
                }
            }
        }
    }
    JOINT lHip
    {
        OFFSET   0.100000  -0.051395   0.000000
        CHANNELS 3 Xrotation Yrotation Zrotation
        JOINT lKnee
        {
            OFFSET   0.000000  -0.410000   0.000000
            CHANNELS 3 Xrotation Yrotation Zrotation
            JOINT lAnkle
            {
                OFFSET   0.000000  -0.390000   0.000000
                CHANNELS 3 Xrotation Yrotation Zrotation
                JOINT lToeJoint
                {
                    OFFSET   0.000000  -0.050000   0.130000
                    CHANNELS 3 Xrotation Yrotation Zrotation
                    End Site
                    {
                        OFFSET   0.010000   0.002000   0.060000
                    }
                }
            }
        }
    }
}
MOTION
Frames: 15
Frame Time:   0.008333
 -2.348316   0.898082   7.461396  -0.331825  12.821263   0.093403   4.689991  -1.041552  -2.846599  -0.670934  -1.367864   0.191829  -1.473143   2.356464   0.054150   5.270864  -0.232550   6.026146  15.727644  14.250829  47.470653   0.000038  21.853991  -0.000410   8.347790   2.163437  -6.220328  -2.442186  -5.497164  -4.852192  -6.836102 -16.282583 -44.255640  -0.001209 -42.981923  -0.001899   5.443589  -6.224176  13.027312 -22.516091   2.143096  -0.841572  13.360051   0.005362  -0.005023  -3.087135  -3.739125   4.466476  -0.154969  -0.000825   0.001100   7.501540  -6.633108  -0.791048  15.217328  -0.000578   0.000944 -17.264206  -4.563003   1.973939  -7.712890  -0.001879   0.000110
 -2.348357   0.897708   7.469457  -0.185064  12.820495   0.078901   4.478209  -1.032349  -2.841292  -0.627792  -1.322419   0.202367  -1.492242   2.327213  -0.026137   5.299878  -0.191121   6.155944  15.702222  14.383051  47.342895   0.000104  21.988981  -0.000542   8.382012   2.113968  -6.232560  -2.421173  -5.453379  -4.991425  -6.543951 -16.149027 -44.339056  -0.000799 -43.057926  -0.001511   5.532809  -6.387872  13.188645 -22.086283   2.195668  -0.473771  13.299643   0.004502  -0.004084  -2.583821  -3.596958   3.991965  -0.060164  -0.000537   0.001036   7.346237  -6.574492  -0.735104  16.234080  -0.000947   0.001457 -17.094662  -4.608014   1.872722  -9.513325  -0.003408   0.000175
 -2.348445   0.897512   7.477822  -0.080891  12.778426   0.057751   4.256633  -1.000973  -2.815885  -0.570650  -1.252037   0.217332  -1.512506   2.296748  -0.097995   5.323553  -0.149833   6.287694  15.672895  14.514871  47.233677   0.000167  22.120120  -0.000612   8.419749   2.088001  -6.227454  -2.332891  -5.374223  -5.163367  -6.215601 -15.991929 -44.451751  -0.000523 -43.100438  -0.001207   5.592529  -6.420333  13.247178 -21.582527   2.247414  -0.049299  13.324820   0.003512  -0.003239  -2.105892  -3.466735   3.548194   0.054759  -0.000341   0.000981   7.184491  -6.500811  -0.668216  17.367816  -0.001408   0.001710 -16.765034  -4.630406   1.749450 -11.668367  -0.005731   0.000148
 -2.348588   0.897298   7.486393   0.026260  12.718927   0.026318   4.014193  -0.951365  -2.779317  -0.524305  -1.164665   0.233951  -1.535738   2.267690  -0.161446   5.346851  -0.114037   6.410280  15.645207  14.639887  47.137649   0.000205  22.245389  -0.000646   8.457729   2.085169  -6.209737  -2.211093  -5.272891  -5.343003  -5.877900 -15.827243 -44.576411  -0.000345 -43.128453  -0.000973   5.632997  -6.381160  13.233632 -21.059395   2.294922   0.402759  13.383390   0.002586  -0.002541  -1.657638  -3.348000   3.133552   0.162126  -0.000234   0.000908   7.050021  -6.427193  -0.579470  18.544921  -0.001949   0.001814 -16.310267  -4.642137   1.616567 -14.128512  -0.008385  -0.000021
 -2.348783   0.896972   7.495065   0.148988  12.664948  -0.006936   3.763250  -0.892546  -2.740498  -0.494370  -1.069434   0.249204  -1.562315   2.240328  -0.218811   5.367927  -0.081042   6.521499  15.618740  14.757537  47.048686   0.000222  22.363965  -0.000670   8.494954   2.095273  -6.190559  -2.078047  -5.163389  -5.518415  -5.547058 -15.664020 -44.701167  -0.000229 -43.148594  -0.000790   5.662696  -6.306403  13.187306 -20.539851   2.340209   0.853866  13.456812   0.001786  -0.001972  -1.237896  -3.239679   2.746115   0.261150  -0.000179   0.000840   6.924640  -6.364246  -0.483686  19.670751  -0.002398   0.001876 -15.807722  -4.659369   1.480864 -16.619250  -0.010576  -0.000352
 -2.349191   0.897501   7.503174   0.250642  12.504494  -0.307774   3.638681  -0.786094  -2.488493  -0.455925  -0.935270   0.360067  -1.600956   2.216925  -0.264420   5.340904   0.003178   6.644454  15.562074  14.888778  46.935945   0.000283  22.477107  -0.000732   8.529846   2.100834  -6.226187  -1.951892  -5.076568  -5.746608  -5.240114 -15.512564 -44.840304  -0.000147 -43.158698  -0.000626   5.679987  -6.190398  13.160897 -20.325667   2.477040   1.396026  13.659652   0.001045  -0.001350  -0.613657  -3.086101   2.330192   0.406858   0.000193   0.000961   6.823444  -6.310967  -0.106622  20.754704  -0.003418   0.000701 -15.123079  -4.648342   1.345654 -19.044421  -0.012427   0.001590
 -2.349651   0.898120   7.511328   0.327319  12.358881  -0.556884   3.508782  -0.692058  -2.324361  -0.389072  -0.805882   0.466853  -1.621488   2.193803  -0.298452   5.319039   0.079025   6.763731  15.504627  15.021859  46.859234   0.000325  22.592894  -0.000778   8.569784   2.159012  -6.229445  -1.822658  -4.984202  -5.927615  -4.943216 -15.369055 -44.967696  -0.000080 -43.169762  -0.000496   5.696590  -6.077415  13.089209 -20.052303   2.513668   1.862430  13.839952   0.000496  -0.001047  -0.145164  -2.996454   2.003980   0.497958   0.000286   0.000825   6.760582  -6.276744   0.226133  21.777507  -0.004155  -0.000142 -14.442802  -4.645545   1.213770 -20.851594  -0.012875   0.002496
 -2.350035   0.898960   7.519045   0.350513  12.365878  -0.758731   3.495707  -0.681623  -2.163265  -0.374905  -0.774147   0.571907  -1.613998   2.170071  -0.302527   5.304334   0.185349   6.837512  15.393429  15.233826  46.733463   0.000308  22.766749  -0.000970   8.606278   2.100381  -6.166682  -1.737205  -4.995068  -6.101083  -4.446123 -15.158361 -45.110128  -0.001943 -42.812083  -0.001289   5.806312  -6.242082  13.108962 -19.603921   2.502445   2.246523  13.789799   0.000488  -0.000880   0.301957  -2.908372   1.560658   0.611195   0.000511   0.000813   5.982749  -6.191062   0.485887  24.236075  -0.005583   0.002778 -13.820864  -4.768601   0.834424 -22.200479  -0.015415   0.000554
 -2.350261   0.899841   7.526866   0.287955  12.256338  -0.905478   3.490825  -0.607241  -2.022841  -0.326274  -0.696573   0.656167  -1.601430   2.147174  -0.298685   5.270837   0.299515   6.884600  15.275369  15.443213  46.601393   0.000203  22.939282  -0.001058   8.648006   2.084693  -6.128150  -1.597488  -4.971530  -6.283782  -3.929413 -14.927914 -45.258706  -0.003504 -42.442780  -0.001888   5.879751  -6.239799  13.024387 -19.045300   2.522363   2.606006  13.704638   0.000542  -0.000699   0.688471  -2.820512   1.132561   0.710821   0.000642   0.000704   5.186711  -6.086983   0.669243  26.814798  -0.007050   0.003431 -13.155854  -4.888910   0.470979 -22.743306  -0.014499   0.000047
 -2.350381   0.900671   7.534805   0.193680  12.064304  -1.026743   3.460433  -0.494634  -1.895127  -0.277491  -0.580999   0.724975  -1.589222   2.125726  -0.291964   5.232301   0.410440   6.913838  15.161146  15.641258  46.468771   0.000042  23.103784  -0.001040   8.690914   2.092897  -6.113163  -1.425132  -4.912543  -6.466194  -3.412181 -14.688291 -45.408949  -0.004553 -42.083035  -0.002160   5.929941  -6.148486  12.886060 -18.454016   2.544955   2.949804  13.628654   0.000567  -0.000494   1.040839  -2.740424   0.730301   0.798031   0.000696   0.000542   4.445135  -5.984637   0.818582  29.338599  -0.008638   0.002426 -12.459607  -5.005032   0.124179 -22.513080  -0.010673   0.000006
 -2.350437   0.901408   7.542806   0.092254  11.829613  -1.139980   3.404289  -0.363116  -1.774628  -0.242959  -0.445035   0.784851  -1.580922   2.105589  -0.283913   5.192146   0.515945   6.930661  15.052832  15.826719  46.337755  -0.000139  23.258833  -0.000955   8.733062   2.110973  -6.116975  -1.238872  -4.832310  -6.641693  -2.908105 -14.448650 -45.555157  -0.005136 -41.738292  -0.002176   5.966246  -6.009396  12.728148 -17.863362   2.564084   3.283312  13.574623   0.000546  -0.000324   1.372311  -2.668835   0.355068   0.876402   0.000702   0.000376   3.762470  -5.892133   0.955800  31.740129  -0.010140   0.000814 -11.749680  -5.121903  -0.206079 -21.651212  -0.005150  -0.000289
 -2.350453   0.902038   7.550821  -0.006188  11.579620  -1.254117   3.328028  -0.224388  -1.658522  -0.225312  -0.300909   0.840210  -1.576730   2.086667  -0.275259   5.151339   0.616129   6.938898  14.950446  16.000221  46.209800  -0.000316  23.404443  -0.000839   8.773823   2.133182  -6.135606  -1.051520  -4.742485  -6.806654  -2.426139 -14.215923 -45.694220  -0.005350 -41.411585  -0.002023   5.994582  -5.846967  12.568164 -17.286846   2.579276   3.609606  13.545481   0.000486  -0.000214   1.688779  -2.604952   0.005611   0.947775   0.000679   0.000232   3.133272  -5.809782   1.091504  34.000604  -0.011343  -0.000722 -11.037993  -5.237383  -0.518806 -20.292722   0.000944  -0.001013
 -2.350441   0.902557   7.558809  -0.097040  11.331399  -1.373158   3.237054  -0.085406  -1.545796  -0.223391  -0.156174   0.893430  -1.575852   2.068913  -0.266442   5.110382   0.711373   6.941398  14.853665  16.162712  46.086074  -0.000475  23.541035  -0.000715   8.813086   2.157492  -6.165507  -0.870738  -4.650644  -6.959584  -1.971133 -13.994368 -45.824784  -0.005295 -41.104407  -0.001770   6.018775  -5.676990  12.414746 -16.730226   2.591061   3.929903  13.540584   0.000397  -0.000163   1.992820  -2.547838  -0.319834   1.013178   0.000639   0.000118   2.551579  -5.736598   1.230606  36.116022  -0.012135  -0.001882 -10.332875  -5.348614  -0.813313 -18.546443   0.006805  -0.002044
 -2.350557   0.903270   7.566282  -0.123297  11.355184  -1.537372   3.185608  -0.047573  -1.409836  -0.258190  -0.124688   0.962999  -1.617456   1.975630  -0.185133   5.168158   0.842216   6.939269  14.642387  16.312084  45.925309  -0.000964  23.862308  -0.000916   8.863199   2.032587  -6.159236  -0.751218  -4.710421  -7.077489  -1.467963 -13.799752 -45.929795  -0.006767 -40.458815  -0.002670   6.097801  -5.688227  12.264449 -16.141432   2.502061   4.230235  13.377030   0.000573  -0.000103   2.069048  -2.536533  -0.722487   1.219794   0.000952   0.000092   1.535168  -5.620766   1.483095  38.860761  -0.011027   0.004758  -9.409985  -5.340590  -1.144704 -16.788129   0.011068   0.004510
 -2.350615   0.904067   7.573607  -0.166416  11.410085  -1.656241   3.158308   0.008908  -1.310309  -0.277265  -0.089580   1.017578  -1.655859   1.885573  -0.102480   5.202458   0.981377   6.926230  14.428684  16.465988  45.768884  -0.001369  24.175504  -0.001223   8.919084   1.974943  -6.180279  -0.633968  -4.776776  -7.183831  -0.989815 -13.614347 -46.023505  -0.007565 -39.837055  -0.003059   6.155259  -5.589405  12.056992 -15.508791   2.440195   4.478375  13.162565   0.000770  -0.000114   2.097921  -2.521108  -1.106608   1.392367   0.001121   0.000133   0.496642  -5.499227   1.718858  41.503987  -0.009334   0.011034  -8.540165  -5.334023  -1.453256 -15.159156   0.013764   0.009869
